:SAMPLES-PER-SECOND 30
:FULLY-SPECIFIED
:DEGREES
1092
root  -39.1706 36.7563 -7.05725 18.9182 -75.5101 10.7344
RightUpLeg  -73.8491 -25.2322 25.0165
RightLeg  38.1482 1.2717 0.792605
RightFoot  -0.278875 1.32519 -13.6202
RightToes  0.00048216 0.542163 -0.142577
Spine  60.6574 -7.05232 12.62
Spine1  6.76744 0.197867 -0.344409
HEad  -34.5834 -4.66017 -0.450337
LeftShoulder1  7.3446 -19.4327 -25.3905
LeftArm  -41.414 -59.2918 -8.2242
LeftForeArm  21.1946 -7.32417 -1.99279
LeftHand  -0.25398 0.0180481 5.50724
RightShoulder  2.3788 16.4614 3.91413
RightArm  -53.5035 62.9208 -2.54104
RightForeArm  -0.342416 -4.0365 1.4169
RightHand  -0.791488 3.15467 -11.0182
LeftUpLeg  -70.3071 20.7981 -29.9144
LeftLeg  30.7872 0.711637 0.807608
LeftFoot  0.183078 -1.12138 11.0273
LeftToes  1.06244e-005 4.65855e-005 -8.18506e-006
1093
root  -39.668 36.5066 -7.18619 22.088 -75.2616 10.153
RightUpLeg  -76.9966 -24.031 26.3562
RightLeg  40.4337 0.798547 0.43842
RightFoot  -2.11014 1.11082 -13.8448
RightToes  0.00048216 0.542163 -0.142577
Spine  61.9859 -9.88977 12.4794
Spine1  7.42369 -1.13894 -6.83341
HEad  -37.7933 -0.956452 3.47639
LeftShoulder1  4.02143 -16.5785 -13.2244
LeftArm  -50.9242 -61.5458 -3.28787
LeftForeArm  16.2049 -6.57345 0.162134
LeftHand  -0.25398 0.0180481 5.50724
RightShoulder  2.43173 17.2658 3.72072
RightArm  -63.0279 65.1598 -7.74765
RightForeArm  -4.53406 -3.06036 0.191085
RightHand  -0.73545 3.86233 -9.5609
LeftUpLeg  -74.0164 19.8324 -30.0173
LeftLeg  33.7357 0.601569 0.78316
LeftFoot  -0.266087 -0.959048 9.88095
LeftToes  1.06244e-005 4.65855e-005 -8.18506e-006
1094
root  -40.1579 36.281 -7.27777 24.5086 -75.3619 9.96741
RightUpLeg  -79.5199 -22.9781 27.5254
RightLeg  42.2814 0.520797 0.20413
RightFoot  -3.53221 0.932478 -13.9254
RightToes  0.00048216 0.542163 -0.142577
Spine  63.8273 -8.51272 11.133
Spine1  6.56055 -0.878326 -5.10345
HEad  -39.1669 -0.702052 3.17583
LeftShoulder1  4.62587 -18.5825 -13.9544
LeftArm  -61.4122 -61.8383 10.2061
LeftForeArm  11.7182 -5.48202 0.879609
LeftHand  -0.25398 0.0180481 5.50724
RightShoulder  2.39616 17.0462 3.67384
RightArm  -67.1507 65.3024 -12.0443
RightForeArm  -10.2171 -1.79461 0.548235
RightHand  -0.898283 5.52111 -9.89065
LeftUpLeg  -77.4223 20.0431 -31.6184
LeftLeg  35.8358 -0.477937 -0.00383853
LeftFoot  -0.649674 -0.92486 9.91423
LeftToes  1.06244e-005 4.65855e-005 -8.18506e-006
1095
root  -40.6164 36.0854 -7.28971 27.8152 -75.5004 8.72772
RightUpLeg  -81.8188 -22.1159 29.0535
RightLeg  43.7989 0.395806 0.0924113
RightFoot  -4.4901 0.825844 -14.2115
RightToes  0.00048216 0.542163 -0.142577
Spine  66.372 -7.61872 10.0047
Spine1  4.11892 -0.637891 -4.22477
HEad  -39.2632 -0.389822 2.8614
LeftShoulder1  5.10589 -19.9486 -14.8615
LeftArm  -68.6438 -60.9415 20.4677
LeftForeArm  7.77863 -5.00134 1.19214
LeftHand  -0.25398 0.0180481 5.50724
RightShoulder  2.52371 16.6779 4.62932
RightArm  -68.8924 66.1852 -13.6591
RightForeArm  -15.5456 -0.418837 1.22144
RightHand  -1.47412 7.90443 -13.1882
LeftUpLeg  -80.4963 20.243 -33.4212
LeftLeg  37.5536 -1.05954 -0.497589
LeftFoot  -1.51919 -1.00041 11.7074
LeftToes  1.06244e-005 4.65855e-005 -8.18506e-006
1096
root  -41.03 35.9114 -7.25184 31.9143 -75.4858 6.56342
RightUpLeg  -84.0428 -21.3799 30.8295
RightLeg  45.2372 0.414849 0.123332
RightFoot  -5.37967 0.726074 -14.5392
RightToes  0.00048216 0.542163 -0.142577
Spine  68.1483 -7.11953 9.2316
Spine1  2.39673 -0.641179 -3.88309
HEad  -39.1438 0.142771 2.47532
LeftShoulder1  5.10569 -20.311 -14.4885
LeftArm  -73.8073 -59.4966 28.2975
LeftForeArm  4.85028 -5.18687 1.35052
LeftHand  -0.25398 0.0180481 5.50724
RightShoulder  2.34024 15.8022 4.19309
RightArm  -69.9363 67.4998 -12.9008
RightForeArm  -21.1204 1.66655 1.74655
RightHand  -2.3475 10.3303 -17.6821
LeftUpLeg  -83.5602 20.0612 -34.5009
LeftLeg  39.5815 -1.06931 -0.565017
LeftFoot  -2.09711 -1.0126 12.6191
LeftToes  1.06244e-005 4.65855e-005 -8.18506e-006
1097
root  -41.4053 35.751 -7.2179 34.963 -75.5295 5.09912
RightUpLeg  -85.8969 -20.763 32.1857
RightLeg  46.6417 0.551797 0.289054
RightFoot  -6.13659 0.632918 -14.7311
RightToes  0.00048216 0.542163 -0.142577
Spine  69.445 -6.51264 8.31548
Spine1  1.36347 -0.804654 -3.54047
HEad  -38.6295 0.621689 2.0835
LeftShoulder1  4.75045 -20.2264 -12.9324
LeftArm  -76.856 -57.736 33.5345
LeftForeArm  3.00135 -5.64531 1.48738
LeftHand  -0.25398 0.0180481 5.50724
RightShoulder  1.91073 14.5031 2.49234
RightArm  -69.7902 68.3073 -9.76006
RightForeArm  -26.5634 4.97896 2.23175
RightHand  -2.97532 12.1094 -20.0565
LeftUpLeg  -86.4518 20.018 -35.3789
LeftLeg  41.8452 -1.30607 -0.862699
LeftFoot  -1.99224 -0.974223 12.015
LeftToes  1.06244e-005 4.65855e-005 -8.18506e-006
1098
root  -41.7463 35.6117 -7.1889 36.3106 -75.8236 4.90808
RightUpLeg  -87.2366 -20.2428 32.8444
RightLeg  47.9085 0.580515 0.339078
RightFoot  -6.55796 0.586782 -14.9987
RightToes  0.00048216 0.542163 -0.142577
Spine  70.5917 -5.59775 7.1435
Spine1  0.785474 -0.830152 -2.98371
HEad  -37.5979 0.650546 1.62969
LeftShoulder1  4.35683 -20.0189 -11.2865
LeftArm  -78.785 -56.5653 36.2081
LeftForeArm  1.37611 -6.1063 1.75385
LeftHand  -0.25398 0.0180481 5.50724
RightShoulder  1.54299 13.2362 0.929869
RightArm  -68.4845 67.9307 -5.5132
RightForeArm  -29.7791 9.39341 2.86873
RightHand  -2.95192 12.9582 -18.9925
LeftUpLeg  -88.7008 20.3477 -36.6429
LeftLeg  43.7568 -1.85141 -1.49417
LeftFoot  -2.02423 -0.931681 11.542
LeftToes  1.06244e-005 4.65855e-005 -8.18506e-006
